<?xml version="1.0" encoding="UTF-8" standalone="yes"?>
<!DOCTYPE svg PUBLIC "-//W3C//DTD SVG 1.1//EN" "http://www.w3.org/Graphics/SVG/1.1/DTD/svg11.dtd">

<svg width="924" height="406" viewBox="0 0 924 406" xmlns="http://www.w3.org/2000/svg" xmlns:xlink="http://www.w3.org/1999/xlink" version="1.1" baseProfile="full">
    <g transform="scale(1.000000,-1.000000) translate(0,-406)">
        <path d="M 265.317800 73.963100 L 85.802300 73.963100 L 85.802300 406.839700 L 1.000000 406.839700 L 1.000000 1.000000 L 207.261800 1.000000 Z M 601.819700 72.586400 L 388.988000 72.586400 L 389.433500 73.145100 L 389.203800 73.145100 L 655.225100 406.839700 L 291.245000 406.839700 L 291.245000 334.978000 L 495.541500 334.978000 L 286.794800 73.564600 L 286.794800 73.651600 L 228.986700 1.000000 L 601.819700 1.000000 Z M 801.755800 334.978000 L 923.177300 334.978000 L 923.177300 406.839700 L 676.966000 406.839700 L 619.677900 334.978000 L 716.402900 334.978000 L 716.402900 1.000000 L 801.755800 1.000000 Z" transform="scale(1.000000,1.000000) translate(-0.088700,-0.919900)" fill="#000000" opacity="1.000000"></path>
    </g>
</svg>